<?xml version="1.0" standalone="no"?>
<!DOCTYPE svg PUBLIC "-//W3C//DTD SVG 20010904//EN"
 "http://www.w3.org/TR/2001/REC-SVG-20010904/DTD/svg10.dtd">
<svg version="1.0" xmlns="http://www.w3.org/2000/svg"
 width="500.000000pt" height="250.000000pt" viewBox="0 0 500.000000 250.000000"
 preserveAspectRatio="xMidYMid meet">

<g transform="translate(0.000000,250.000000) scale(0.100000,-0.100000)"
fill="#000000" stroke="none">
<path d="M2868 1898 c-16 -5 -28 -14 -28 -19 0 -5 12 -4 26 2 15 5 28 8 30 7
1 -2 -31 -98 -72 -213 -134 -380 -122 -352 -167 -385 -22 -16 -45 -30 -49 -30
-4 0 1 24 12 53 23 61 23 57 10 57 -5 0 -12 -11 -16 -25 -4 -16 -23 -35 -49
-50 -54 -32 -78 -33 -73 -2 2 12 9 21 15 20 25 -5 63 17 63 36 0 48 -52 36
-80 -19 -33 -65 -9 -90 58 -60 41 18 41 18 44 -2 4 -31 22 -32 56 -3 39 33 42
32 30 -9 -11 -34 -6 -66 10 -66 5 0 26 15 48 34 l39 33 0 -30 c0 -45 19 -43
73 7 44 41 50 44 64 30 14 -15 20 -14 59 3 24 11 50 27 58 36 18 22 5 21 -27
-2 -54 -37 -95 -38 -85 -2 3 12 11 17 22 14 25 -6 64 28 56 50 -12 30 -41 19
-80 -30 -58 -73 -108 -123 -122 -123 -16 0 -13 7 121 384 74 209 103 302 95
307 -14 8 -69 -9 -69 -22 0 -12 7 -11 32 2 11 6 22 9 24 7 2 -3 -41 -132 -97
-288 -79 -225 -107 -293 -135 -327 -34 -42 -71 -69 -80 -60 -4 4 121 367 205
596 17 47 31 86 31 87 0 8 -30 9 -52 2z m-318 -553 c-7 -8 -19 -15 -27 -15
-13 0 -13 3 -3 15 7 8 19 15 27 15 13 0 13 -3 3 -15z m428 3 c-3 -7 -15 -15
-28 -16 -21 -3 -22 -2 -11 12 16 19 44 21 39 4z"/>
<path d="M1748 1844 c-41 -22 -118 -122 -188 -245 -34 -60 -64 -109 -66 -109
-1 0 0 32 3 70 4 45 2 70 -4 70 -6 0 -13 -43 -15 -102 -4 -76 -11 -115 -27
-148 -11 -25 -21 -54 -20 -65 0 -19 0 -19 18 2 10 12 22 39 26 59 7 40 71 173
128 267 88 146 171 222 216 197 70 -37 47 -272 -63 -654 -26 -88 -45 -164 -43
-169 1 -5 18 31 36 79 96 253 232 505 300 553 45 32 92 26 103 -14 11 -40 -6
-117 -49 -233 -36 -99 -38 -139 -3 -56 34 79 70 213 70 260 0 31 -6 50 -20 64
-65 65 -168 -35 -291 -284 -33 -65 -59 -117 -59 -114 0 2 14 64 30 136 78 340
47 507 -82 436z"/>
<path d="M3471 1808 c-60 -16 -205 -185 -272 -318 -58 -115 -49 -210 20 -210
58 0 223 103 333 208 21 20 40 33 43 31 2 -3 -18 -75 -46 -160 l-51 -154 -63
-58 c-79 -72 -105 -112 -105 -164 0 -53 22 -73 51 -47 23 21 75 119 104 198
12 31 30 56 49 68 25 16 27 19 9 15 -13 -3 -23 -2 -23 1 0 4 18 61 40 127 62
182 70 215 58 215 -5 0 -36 -23 -67 -52 -69 -63 -202 -163 -250 -188 -64 -32
-97 -34 -115 -8 -21 30 -20 56 5 124 38 101 187 302 255 345 50 31 81 25 132
-26 24 -25 46 -45 49 -45 8 0 -16 37 -42 62 -35 35 -72 47 -114 36z m2 -665
c-22 -60 -82 -180 -97 -192 -15 -13 -19 -13 -27 0 -23 37 7 104 75 167 50 46
58 50 49 25z"/>
<path d="M2647 1453 c-10 -9 -8 -43 2 -43 5 0 14 7 21 15 17 21 -4 48 -23 28z"/>
<path d="M2467 1378 c-24 -35 -57 -85 -73 -113 l-29 -50 -7 74 c-8 78 -18 107
-18 52 0 -35 -20 -80 -44 -100 -20 -17 -21 -2 -2 52 11 30 11 37 1 37 -8 0
-15 10 -17 23 -5 37 -33 27 -33 -12 0 -29 -5 -37 -38 -54 -43 -22 -68 -17 -60
11 3 13 11 18 22 15 25 -6 64 28 56 50 -10 25 -41 21 -64 -10 -30 -37 -37 -71
-19 -90 13 -13 19 -13 52 1 26 11 36 12 36 3 0 -7 11 2 25 18 l24 30 -6 -52
c-7 -62 3 -67 43 -20 l27 32 -5 -67 c-3 -38 -4 -68 -3 -68 2 0 22 33 45 73 24
39 67 107 96 150 29 42 49 77 44 77 -5 0 -29 -28 -53 -62z m-259 -30 c-3 -7
-15 -15 -28 -16 -21 -3 -22 -2 -11 12 16 19 44 21 39 4z m62 8 c0 -3 -4 -8
-10 -11 -5 -3 -10 -1 -10 4 0 6 5 11 10 11 6 0 10 -2 10 -4z"/>
</g>
</svg>
